<svg width="20" height="23" viewBox="0 0 20 23" fill="none" xmlns="http://www.w3.org/2000/svg">
<path d="M6.25 16.0026C5.51917 16.0026 4.89583 15.7532 4.38 15.2544C3.86417 14.7555 3.60583 14.1538 3.605 13.449C3.60417 12.7442 3.8625 12.1424 4.38 11.6436C4.8975 11.1448 5.52083 10.8954 6.25 10.8954C6.97917 10.8954 7.6025 11.1448 8.12 11.6436C8.6375 12.1424 8.89583 12.7442 8.895 13.449C8.89417 14.1538 8.63583 14.7555 8.12 15.2544C7.60417 15.7532 6.98083 16.0026 6.25 16.0026ZM0 22.5V3.19117H4.23125V0.5H5.5775V3.19117H14.52V0.5H15.77V3.19117H20V22.5H0ZM1.25 21.2932H18.75V9.96857H1.25V21.2932ZM1.25 8.76056H18.75V4.39797H1.25V8.76056Z" fill="#116AB0"/>
</svg>
