<svg width="22" height="24" viewBox="0 0 22 24" fill="none" xmlns="http://www.w3.org/2000/svg">
<g clip-path="url(#clip0_285_488)">
<path d="M6.875 16.9119C6.07109 16.9119 5.38541 16.6399 4.818 16.0956C4.25059 15.5515 3.96641 14.895 3.9655 14.1262C3.96459 13.3573 4.24875 12.7008 4.818 12.1567C5.38725 11.6125 6.07291 11.3404 6.875 11.3404C7.67709 11.3404 8.36275 11.6125 8.932 12.1567C9.50129 12.7008 9.78543 13.3573 9.7845 14.1262C9.78357 14.895 9.49943 15.5515 8.932 16.0956C8.36459 16.6399 7.67891 16.9119 6.875 16.9119ZM0 24V2.93582H4.65438V0H6.13525V2.93582H15.972V0H17.347V2.93582H22V24H0ZM1.375 22.6835H20.625V10.3294H1.375V22.6835ZM1.375 9.0115H20.625V4.25233H1.375V9.0115Z" fill="white"/>
</g>
<defs>
<clipPath id="clip0_285_488">
<rect width="22" height="24" fill="white"/>
</clipPath>
</defs>
</svg>
