<svg width="40" height="40" viewBox="0 0 40 40" fill="none" xmlns="http://www.w3.org/2000/svg">
<path d="M20 4.62012C10.795 4.62012 3.33337 10.5034 3.33337 17.7618C3.33337 22.4534 6.45337 26.5701 11.145 28.8951C10.89 29.7751 9.50504 34.5618 9.45004 34.9351C9.45004 34.9351 9.41671 35.2168 9.60004 35.3251C9.6615 35.3564 9.72876 35.3746 9.7976 35.3786C9.86644 35.3826 9.93536 35.3724 10 35.3484C10.525 35.2768 16.0817 31.3734 17.0434 30.6951C18.0228 30.8335 19.0108 30.9026 20 30.9018C29.205 30.9018 36.6667 25.0184 36.6667 17.7618C36.6667 10.5051 29.205 4.62012 20 4.62012ZM11.7467 21.4301C11.7323 21.6754 11.6247 21.9058 11.4459 22.0744C11.2671 22.2429 11.0307 22.3368 10.785 22.3368C10.5394 22.3368 10.303 22.2429 10.1242 22.0744C9.94543 21.9058 9.83782 21.6754 9.82337 21.4301V15.7184H8.32337C8.19971 15.7184 8.07726 15.6941 7.96301 15.6468C7.84877 15.5994 7.74496 15.5301 7.65752 15.4426C7.57007 15.3552 7.50071 15.2514 7.45339 15.1371C7.40606 15.0229 7.38171 14.9004 7.38171 14.7768C7.38171 14.6531 7.40606 14.5307 7.45339 14.4164C7.50071 14.3022 7.57007 14.1984 7.65752 14.1109C7.74496 14.0235 7.84877 13.9541 7.96301 13.9068C8.07726 13.8595 8.19971 13.8351 8.32337 13.8351H13.2467C13.4965 13.8351 13.736 13.9343 13.9126 14.1109C14.0892 14.2875 14.1884 14.527 14.1884 14.7768C14.1884 15.0265 14.0892 15.266 13.9126 15.4426C13.736 15.6192 13.4965 15.7184 13.2467 15.7184H11.7467V21.4301ZM19.8284 22.2034C19.6364 22.2911 19.4277 22.336 19.2167 22.3351C19.056 22.3555 18.8929 22.3258 18.7497 22.25C18.6065 22.1743 18.4902 22.0561 18.4167 21.9118L17.94 20.6651H15.0084L14.5317 21.9118C14.4582 22.0561 14.3419 22.1743 14.1987 22.25C14.0555 22.3258 13.8924 22.3555 13.7317 22.3351C13.5213 22.3358 13.3131 22.2909 13.1217 22.2034C12.8567 22.0801 12.6017 21.7451 12.8934 20.8384L15.1934 14.7834C15.2732 14.5051 15.4414 14.2604 15.6726 14.0862C15.9039 13.9119 16.1855 13.8177 16.475 13.8177C16.7646 13.8177 17.0462 13.9119 17.2774 14.0862C17.5087 14.2604 17.6769 14.5051 17.7567 14.7834L20.055 20.8334C20.3484 21.7451 20.0934 22.0818 19.8334 22.2034H19.8284ZM24.6884 22.2034H21.6034C21.3643 22.2084 21.1331 22.1183 20.9604 21.9531C20.7876 21.7878 20.6874 21.5608 20.6817 21.3218V14.7968C20.6817 14.5364 20.7851 14.2867 20.9692 14.1026C21.1533 13.9185 21.403 13.8151 21.6634 13.8151C21.9237 13.8151 22.1734 13.9185 22.3575 14.1026C22.5416 14.2867 22.645 14.5364 22.645 14.7968V20.4451H24.6884C24.9222 20.4451 25.1465 20.538 25.3118 20.7033C25.4772 20.8687 25.57 21.0929 25.57 21.3268C25.57 21.5606 25.4772 21.7849 25.3118 21.9502C25.1465 22.1156 24.9222 22.2084 24.6884 22.2084V22.2034ZM31.8417 22.1134C31.6756 22.2401 31.4722 22.3081 31.2634 22.3068C31.1144 22.3075 30.9673 22.2734 30.8339 22.2071C30.7005 22.1408 30.5845 22.0442 30.495 21.9251L28.24 18.9368L27.9067 19.2701V21.3684C27.9067 21.6235 27.8054 21.8681 27.625 22.0485C27.4447 22.2288 27.2001 22.3301 26.945 22.3301C26.69 22.3301 26.4454 22.2288 26.265 22.0485C26.0847 21.8681 25.9834 21.6235 25.9834 21.3684V14.7968C25.9834 14.5417 26.0847 14.2971 26.265 14.1168C26.4454 13.9364 26.69 13.8351 26.945 13.8351C27.2001 13.8351 27.4447 13.9364 27.625 14.1168C27.8054 14.2971 27.9067 14.5417 27.9067 14.7968V16.8634L30.5884 14.1801C30.6588 14.1111 30.7422 14.0567 30.8337 14.0201C30.9252 13.9835 31.0231 13.9654 31.1217 13.9668C31.3617 13.973 31.5909 14.0676 31.7653 14.2325C31.9397 14.3974 32.0471 14.6209 32.0667 14.8601C32.0752 14.9671 32.0607 15.0746 32.0242 15.1755C31.9877 15.2764 31.93 15.3684 31.855 15.4451L29.6667 17.6368L32.0334 20.7718C32.1869 20.9754 32.2534 21.2316 32.218 21.4841C32.1827 21.7366 32.0486 21.9648 31.845 22.1184L31.8417 22.1134ZM16.475 16.2334L17.435 18.9618H15.5134L16.475 16.2334Z" fill="#A2A2A2"/>
</svg>
