<svg width="40" height="40" viewBox="0 0 40 40" fill="none" xmlns="http://www.w3.org/2000/svg">
<path d="M36.2159 36.7273H4.51136C4.37574 36.7273 4.24567 36.6734 4.14977 36.5775C4.05388 36.4816 4 36.3515 4 36.2159V4.51136C4 4.37574 4.05388 4.24567 4.14977 4.14977C4.24567 4.05388 4.37574 4 4.51136 4H36.2159C36.3515 4 36.4816 4.05388 36.5775 4.14977C36.6734 4.24567 36.7273 4.37574 36.7273 4.51136V36.2159C36.7273 36.3515 36.6734 36.4816 36.5775 36.5775C36.4816 36.6734 36.3515 36.7273 36.2159 36.7273Z" fill="#A2A2A2"/>
<path d="M29.0569 28.8008H23.1762C23.0947 28.8008 23.0143 28.7813 22.9418 28.744C22.8693 28.7066 22.8068 28.6524 22.7595 28.586L18.0626 21.9664V28.2894C18.0626 28.425 18.0087 28.5551 17.9128 28.651C17.8169 28.7469 17.6868 28.8008 17.5512 28.8008H11.6705C11.5349 28.8008 11.4049 28.7469 11.309 28.651C11.2131 28.5551 11.1592 28.425 11.1592 28.2894V12.4371C11.1592 12.3015 11.2131 12.1715 11.309 12.0756C11.4049 11.9797 11.5349 11.9258 11.6705 11.9258H17.5512C17.6328 11.9258 17.7132 11.9452 17.7857 11.9826C17.8582 12.02 17.9207 12.0741 17.968 12.1406L22.6649 18.7602V12.4371C22.6649 12.3015 22.7187 12.1715 22.8146 12.0756C22.9105 11.9797 23.0406 11.9258 23.1762 11.9258H29.0569C29.1925 11.9258 29.3226 11.9797 29.4185 12.0756C29.5144 12.1715 29.5683 12.3015 29.5683 12.4371V28.2894C29.5683 28.425 29.5144 28.5551 29.4185 28.651C29.3226 28.7469 29.1925 28.8008 29.0569 28.8008Z" fill="#EEEEEE"/>
</svg>
