<svg width="40" height="40" viewBox="0 0 40 40" fill="none" xmlns="http://www.w3.org/2000/svg">
<path d="M34.2288 16.4633C34.2922 14.5038 33.8907 12.5589 33.0616 10.8094C32.4991 10.0915 31.7184 9.607 30.8555 9.44038C27.2867 9.09475 23.7031 8.95308 20.1201 9.01599C16.5501 8.95023 12.9794 9.08732 9.42306 9.42669C8.71996 9.5632 8.06928 9.9152 7.55044 10.4397C6.39609 11.576 6.26783 13.5199 6.13957 15.1627C5.95348 18.1164 5.95348 21.0801 6.13957 24.0337C6.17667 24.9583 6.30566 25.8761 6.52435 26.7717C6.679 27.4631 6.99189 28.1028 7.43501 28.6335C7.95737 29.1858 8.6232 29.5578 9.3461 29.7013C12.1113 30.0656 14.8975 30.2166 17.6831 30.1531C22.1722 30.2215 26.1099 30.1531 30.7657 29.7697C31.5064 29.6351 32.191 29.2626 32.7281 28.7019C33.0872 28.3185 33.3554 27.8492 33.5105 27.333C33.9692 25.8307 34.1945 24.2584 34.1775 22.6784C34.2288 21.9118 34.2288 17.2846 34.2288 16.4633ZM17.2213 23.4998V15.0258L24.8144 19.2834C22.6853 20.5428 19.8764 21.9666 17.2213 23.4998Z" fill="#A2A2A2"/>
</svg>
