<svg width="91" height="78" viewBox="0 0 91 78" fill="none" xmlns="http://www.w3.org/2000/svg">
<path d="M1.472 73V64.312H2.672L2.8 65.576H2.848C3.6 64.744 4.512 64.088 5.552 64.088C6.88 64.088 7.6 64.728 7.952 65.752C8.848 64.776 9.76 64.088 10.816 64.088C12.608 64.088 13.456 65.272 13.456 67.496V73H12V67.688C12 66.056 11.488 65.368 10.384 65.368C9.712 65.368 9.008 65.8 8.192 66.696V73H6.736V67.688C6.736 66.056 6.224 65.368 5.12 65.368C4.464 65.368 3.728 65.8 2.928 66.696V73H1.472ZM19.3085 73.208C17.0045 73.208 15.1485 71.528 15.1485 68.664C15.1485 65.848 17.0525 64.088 19.0685 64.088C21.2765 64.088 22.5245 65.688 22.5245 68.168C22.5245 68.488 22.4925 68.792 22.4605 69H16.6045C16.7005 70.856 17.8365 72.04 19.4845 72.04C20.3325 72.04 21.0205 71.784 21.6605 71.352L22.1885 72.312C21.4205 72.808 20.4925 73.208 19.3085 73.208ZM16.5885 67.944H21.2445C21.2445 66.2 20.4445 65.256 19.0845 65.256C17.8525 65.256 16.7645 66.248 16.5885 67.944ZM24.1839 73V64.312H25.3839L25.5119 65.576H25.5599C26.3119 64.744 27.2239 64.088 28.2639 64.088C29.5919 64.088 30.3119 64.728 30.6639 65.752C31.5599 64.776 32.4719 64.088 33.5279 64.088C35.3199 64.088 36.1679 65.272 36.1679 67.496V73H34.7119V67.688C34.7119 66.056 34.1999 65.368 33.0959 65.368C32.4239 65.368 31.7199 65.8 30.9039 66.696V73H29.4479V67.688C29.4479 66.056 28.9359 65.368 27.8319 65.368C27.1759 65.368 26.4399 65.8 25.6399 66.696V73H24.1839ZM42.3404 73.208C41.5404 73.208 40.6284 72.792 39.8764 72.104H39.8124L39.6844 73H38.5164V60.264H39.9724V63.752L39.9244 65.32C40.7084 64.632 41.6844 64.088 42.6444 64.088C44.9004 64.088 46.1164 65.848 46.1164 68.504C46.1164 71.496 44.3404 73.208 42.3404 73.208ZM42.1004 71.992C43.5404 71.992 44.5964 70.696 44.5964 68.536C44.5964 66.616 43.9564 65.32 42.3084 65.32C41.5724 65.32 40.8044 65.736 39.9724 66.52V71.08C40.7404 71.752 41.5244 71.992 42.1004 71.992ZM51.431 73.208C49.127 73.208 47.271 71.528 47.271 68.664C47.271 65.848 49.175 64.088 51.191 64.088C53.399 64.088 54.647 65.688 54.647 68.168C54.647 68.488 54.615 68.792 54.583 69H48.727C48.823 70.856 49.959 72.04 51.607 72.04C52.455 72.04 53.143 71.784 53.783 71.352L54.311 72.312C53.543 72.808 52.615 73.208 51.431 73.208ZM48.711 67.944H53.367C53.367 66.2 52.567 65.256 51.207 65.256C49.975 65.256 48.887 66.248 48.711 67.944ZM56.3064 73V64.312H57.5064L57.6344 65.896H57.6824C58.2904 64.792 59.1704 64.088 60.1464 64.088C60.5304 64.088 60.8024 64.136 61.0744 64.28L60.8024 65.56C60.5144 65.448 60.3064 65.416 59.9544 65.416C59.2344 65.416 58.3384 65.928 57.7624 67.416V73H56.3064ZM64.239 73.208C63.007 73.208 61.823 72.696 60.991 72.008L61.711 71.048C62.463 71.656 63.247 72.072 64.287 72.072C65.439 72.072 65.999 71.464 65.999 70.712C65.999 69.816 64.975 69.432 64.015 69.064C62.799 68.616 61.471 68.024 61.471 66.552C61.471 65.176 62.591 64.088 64.479 64.088C65.551 64.088 66.495 64.536 67.167 65.064L66.463 66.008C65.871 65.56 65.263 65.24 64.495 65.24C63.391 65.24 62.879 65.816 62.879 66.488C62.879 67.32 63.775 67.624 64.751 67.992C66.015 68.472 67.407 68.984 67.407 70.632C67.407 72.04 66.287 73.208 64.239 73.208ZM68.9714 73V60.264H70.4274V63.752L70.3794 65.544C71.1794 64.744 72.0754 64.088 73.2594 64.088C75.0834 64.088 75.9154 65.272 75.9154 67.496V73H74.4594V67.688C74.4594 66.056 73.9634 65.368 72.8114 65.368C71.9154 65.368 71.3074 65.816 70.4274 66.696V73H68.9714ZM78.2101 73V64.312H79.6661V73H78.2101ZM78.9461 62.52C78.3701 62.52 77.9701 62.136 77.9701 61.544C77.9701 60.984 78.3701 60.6 78.9461 60.6C79.5221 60.6 79.9221 60.984 79.9221 61.544C79.9221 62.136 79.5221 62.52 78.9461 62.52ZM82.1364 76.664V64.312H83.3364L83.4644 65.304H83.5124C84.2964 64.664 85.2724 64.088 86.2804 64.088C88.5204 64.088 89.7364 65.848 89.7364 68.52C89.7364 71.496 87.9604 73.208 85.9604 73.208C85.1764 73.208 84.3444 72.84 83.5604 72.2L83.5924 73.72V76.664H82.1364ZM85.7204 71.992C87.1604 71.992 88.2164 70.696 88.2164 68.536C88.2164 66.616 87.5764 65.32 85.9284 65.32C85.1924 65.32 84.4404 65.736 83.5924 66.52V71.08C84.3764 71.752 85.1444 71.992 85.7204 71.992Z" fill="#116AB0"/>
<path d="M25 7H67V37.3333H52.8203V47.2967L46 43.883L39.1797 47.292V37.3333H25V7ZM27.3333 29.3463H64.6667V24.3203H27.3333V29.3463Z" fill="#116AB0"/>
</svg>
