<svg width="65" height="28" viewBox="0 0 65 28" fill="none" xmlns="http://www.w3.org/2000/svg">
<g clip-path="url(#clip0_350_1214)">
<g filter="url(#filter0_d_350_1214)">
<path d="M40.5 1.75C40.0359 1.75 39.5908 1.93437 39.2626 2.26256C38.9344 2.59075 38.75 3.03587 38.75 3.5V24.5C38.75 24.9641 38.9344 25.4092 39.2626 25.7374C39.5908 26.0656 40.0359 26.25 40.5 26.25H61.5C61.9641 26.25 62.4092 26.0656 62.7374 25.7374C63.0656 25.4092 63.25 24.9641 63.25 24.5V3.5C63.25 3.03587 63.0656 2.59075 62.7374 2.26256C62.4092 1.93437 61.9641 1.75 61.5 1.75H53.625C53.1609 1.75 52.7158 1.93437 52.3876 2.26256C52.0594 2.59075 51.875 3.03587 51.875 3.5V16.2628L56.5055 11.6305C56.6698 11.4662 56.8926 11.3739 57.125 11.3739C57.3574 11.3739 57.5802 11.4662 57.7445 11.6305C57.9088 11.7948 58.0011 12.0176 58.0011 12.25C58.0011 12.4824 57.9088 12.7052 57.7445 12.8695L51.6195 18.9945C51.5382 19.076 51.4417 19.1406 51.3354 19.1847C51.2291 19.2289 51.1151 19.2516 51 19.2516C50.8849 19.2516 50.7709 19.2289 50.6646 19.1847C50.5583 19.1406 50.4618 19.076 50.3805 18.9945L44.2555 12.8695C44.1741 12.7881 44.1096 12.6916 44.0656 12.5853C44.0216 12.479 43.9989 12.3651 43.9989 12.25C43.9989 12.1349 44.0216 12.021 44.0656 11.9147C44.1096 11.8084 44.1741 11.7119 44.2555 11.6305C44.3369 11.5491 44.4334 11.4846 44.5397 11.4406C44.646 11.3966 44.7599 11.3739 44.875 11.3739C44.9901 11.3739 45.104 11.3966 45.2103 11.4406C45.3166 11.4846 45.4131 11.5491 45.4945 11.6305L50.125 16.2628V3.5C50.125 2.57174 50.4937 1.6815 51.1501 1.02513C51.8065 0.368749 52.6967 0 53.625 0L61.5 0C62.4283 0 63.3185 0.368749 63.9749 1.02513C64.6313 1.6815 65 2.57174 65 3.5V24.5C65 25.4283 64.6313 26.3185 63.9749 26.9749C63.3185 27.6313 62.4283 28 61.5 28H40.5C39.5717 28 38.6815 27.6313 38.0251 26.9749C37.3687 26.3185 37 25.4283 37 24.5V3.5C37 2.57174 37.3687 1.6815 38.0251 1.02513C38.6815 0.368749 39.5717 0 40.5 0L44.875 0C45.1071 0 45.3296 0.0921873 45.4937 0.256282C45.6578 0.420376 45.75 0.642936 45.75 0.875C45.75 1.10706 45.6578 1.32962 45.4937 1.49372C45.3296 1.65781 45.1071 1.75 44.875 1.75H40.5Z" fill="#00BBFF"/>
</g>
</g>
<g filter="url(#filter1_d_350_1214)">
<path d="M13.376 7.768H14.688V22.264H13.376V7.768ZM10.256 13.048H13.76V14.136H10.256V13.048ZM6.464 9.848H7.536V12.008C7.536 15.128 5.744 18.216 3.456 19.4L2.672 18.344C4.752 17.32 6.464 14.584 6.464 12.008V9.848ZM6.736 9.848H7.792V12.008C7.792 14.424 9.472 17.064 11.568 18.056L10.784 19.096C8.496 17.96 6.736 14.984 6.736 12.008V9.848ZM3.2 9.256H11.072V10.36H3.2V9.256ZM20.7508 9.336H21.8388V10.504C21.8388 13.16 20.2388 15.384 17.8068 16.264L17.1348 15.208C19.3108 14.44 20.7508 12.568 20.7508 10.504V9.336ZM20.9908 9.336H22.0788V10.488C22.0788 12.376 23.4548 14.072 25.5828 14.776L24.9428 15.816C22.5268 15.016 20.9908 12.952 20.9908 10.488V9.336ZM17.5348 8.856H25.2628V9.944H17.5348V8.856ZM27.0868 7.784H28.4148V16.504H27.0868V7.784ZM28.0468 11.448H30.5588V12.568H28.0468V11.448ZM23.8068 16.888C26.7508 16.888 28.5588 17.864 28.5588 19.544C28.5588 21.24 26.7508 22.216 23.8068 22.216C20.8628 22.216 19.0548 21.24 19.0548 19.544C19.0548 17.864 20.8628 16.888 23.8068 16.888ZM23.8068 17.96C21.6628 17.96 20.3508 18.536 20.3508 19.544C20.3508 20.568 21.6628 21.176 23.8068 21.176C25.9508 21.176 27.2628 20.568 27.2628 19.544C27.2628 18.536 25.9508 17.96 23.8068 17.96Z" fill="#00BBFF"/>
</g>
<defs>
<filter id="filter0_d_350_1214" x="35.2" y="-1.8" width="33.6" height="33.6" filterUnits="userSpaceOnUse" color-interpolation-filters="sRGB">
<feFlood flood-opacity="0" result="BackgroundImageFix"/>
<feColorMatrix in="SourceAlpha" type="matrix" values="0 0 0 0 0 0 0 0 0 0 0 0 0 0 0 0 0 0 127 0" result="hardAlpha"/>
<feOffset dx="1" dy="1"/>
<feGaussianBlur stdDeviation="1.4"/>
<feComposite in2="hardAlpha" operator="out"/>
<feColorMatrix type="matrix" values="0 0 0 0 0 0 0 0 0 0 0 0 0 0 0 0 0 0 0.25 0"/>
<feBlend mode="normal" in2="BackgroundImageFix" result="effect1_dropShadow_350_1214"/>
<feBlend mode="normal" in="SourceGraphic" in2="effect1_dropShadow_350_1214" result="shape"/>
</filter>
<filter id="filter1_d_350_1214" x="0.871875" y="5.96807" width="33.4867" height="20.0958" filterUnits="userSpaceOnUse" color-interpolation-filters="sRGB">
<feFlood flood-opacity="0" result="BackgroundImageFix"/>
<feColorMatrix in="SourceAlpha" type="matrix" values="0 0 0 0 0 0 0 0 0 0 0 0 0 0 0 0 0 0 127 0" result="hardAlpha"/>
<feOffset dx="1" dy="1"/>
<feGaussianBlur stdDeviation="1.4"/>
<feComposite in2="hardAlpha" operator="out"/>
<feColorMatrix type="matrix" values="0 0 0 0 0 0 0 0 0 0 0 0 0 0 0 0 0 0 0.25 0"/>
<feBlend mode="normal" in2="BackgroundImageFix" result="effect1_dropShadow_350_1214"/>
<feBlend mode="normal" in="SourceGraphic" in2="effect1_dropShadow_350_1214" result="shape"/>
</filter>
<clipPath id="clip0_350_1214">
<rect width="28" height="28" fill="white" transform="translate(37)"/>
</clipPath>
</defs>
</svg>
