<svg width="64" height="28" viewBox="0 0 64 28" fill="none" xmlns="http://www.w3.org/2000/svg">
<g clip-path="url(#clip0_348_1208)">
<g filter="url(#filter0_d_348_1208)">
<path fill-rule="evenodd" clip-rule="evenodd" d="M59.6248 6.99992C59.6241 6.53104 59.5207 6.068 59.3217 5.64342C59.1228 5.21884 58.8332 4.84302 58.4733 4.54242C58.1135 4.24183 57.6921 4.02376 57.2389 3.90358C56.7857 3.78339 56.3116 3.764 55.8501 3.84678C55.3886 3.92956 54.9508 4.11249 54.5676 4.3827C54.1844 4.65291 53.8651 5.00382 53.6321 5.41075C53.3992 5.81767 53.2583 6.27071 53.2193 6.73797C53.1803 7.20523 53.2442 7.67535 53.4065 8.11525L46.0402 11.9349C45.6172 11.4316 45.0498 11.0703 44.4148 10.9C43.7798 10.7297 43.1078 10.7586 42.4897 10.9828C41.8717 11.207 41.3374 11.6157 40.9593 12.1535C40.5811 12.6913 40.3774 13.3324 40.3755 13.9898C40.3736 14.6473 40.5738 15.2894 40.9489 15.8294C41.3241 16.3693 41.856 16.781 42.4728 17.0087C43.0895 17.2363 43.7614 17.269 44.3973 17.1023C45.0333 16.9356 45.6027 16.5776 46.0285 16.0766L53.2712 20.3688C53.1186 21.1278 53.2457 21.9165 53.6291 22.5892C54.0124 23.2619 54.6261 23.7733 55.3569 24.0291C56.0877 24.2848 56.8863 24.2677 57.6055 23.9807C58.3246 23.6938 58.9157 23.1565 59.2698 22.468C59.6239 21.7794 59.717 20.986 59.532 20.2342C59.347 19.4824 58.8964 18.8228 58.2632 18.3772C57.63 17.9315 56.8571 17.7299 56.0869 17.8095C55.3168 17.889 54.6013 18.2444 54.0727 18.8101L46.7577 14.4748C46.8034 14.163 46.8038 13.8463 46.7588 13.5344L54.4588 9.54092C54.9336 9.90657 55.5012 10.1319 56.0975 10.1915C56.6938 10.2511 57.2948 10.1425 57.8325 9.878C58.3703 9.61352 58.8232 9.20372 59.1399 8.69505C59.4567 8.18638 59.6247 7.59916 59.6248 6.99992ZM56.4165 5.54159C56.8033 5.54159 57.1742 5.69523 57.4477 5.96872C57.7212 6.24221 57.8748 6.61314 57.8748 6.99992C57.8748 7.38669 57.7212 7.75763 57.4477 8.03112C57.1742 8.30461 56.8033 8.45825 56.4165 8.45825C56.0297 8.45825 55.6588 8.30461 55.3853 8.03112C55.1118 7.75763 54.9582 7.38669 54.9582 6.99992C54.9582 6.61314 55.1118 6.24221 55.3853 5.96872C55.6588 5.69523 56.0297 5.54159 56.4165 5.54159ZM43.5832 12.5416C43.9699 12.5416 44.3409 12.6952 44.6144 12.9687C44.8878 13.2422 45.0415 13.6131 45.0415 13.9999C45.0415 14.3867 44.8878 14.7576 44.6144 15.0311C44.3409 15.3046 43.9699 15.4583 43.5832 15.4583C43.1964 15.4583 42.8255 15.3046 42.552 15.0311C42.2785 14.7576 42.1248 14.3867 42.1248 13.9999C42.1248 13.6131 42.2785 13.2422 42.552 12.9687C42.8255 12.6952 43.1964 12.5416 43.5832 12.5416ZM56.4165 19.5416C56.8033 19.5416 57.1742 19.6952 57.4477 19.9687C57.7212 20.2422 57.8748 20.6131 57.8748 20.9999C57.8748 21.3867 57.7212 21.7576 57.4477 22.0311C57.1742 22.3046 56.8033 22.4583 56.4165 22.4583C56.0297 22.4583 55.6588 22.3046 55.3853 22.0311C55.1118 21.7576 54.9582 21.3867 54.9582 20.9999C54.9582 20.6131 55.1118 20.2422 55.3853 19.9687C55.6588 19.6952 56.0297 19.5416 56.4165 19.5416Z" fill="#00BBFF"/>
</g>
</g>
<g filter="url(#filter1_d_348_1208)">
<path d="M8.28 16.904C11.352 16.904 13.32 17.912 13.32 19.576C13.32 21.224 11.352 22.216 8.28 22.216C5.192 22.216 3.24 21.224 3.24 19.576C3.24 17.912 5.192 16.904 8.28 16.904ZM8.28 17.944C6.008 17.944 4.552 18.568 4.552 19.576C4.552 20.568 6.008 21.192 8.28 21.192C10.552 21.192 11.992 20.568 11.992 19.576C11.992 18.568 10.552 17.944 8.28 17.944ZM3.352 8.504H12.664V9.592H3.352V8.504ZM1.8 14.52H14.856V15.592H1.8V14.52ZM7.16 11.736H8.472V14.824H7.16V11.736ZM11.896 8.504H13.192V9.736C13.192 10.904 13.192 12.072 12.808 13.576L11.496 13.416C11.896 11.928 11.896 10.872 11.896 9.736V8.504ZM19.5428 16.728H20.9028V22.248H19.5428V16.728ZM24.5188 16.728H25.8788V22.248H24.5188V16.728ZM16.1828 16.008H29.3028V17.112H16.1828V16.008ZM22.7108 8.36C25.7348 8.36 27.7668 9.576 27.7668 11.512C27.7668 13.432 25.7348 14.664 22.7108 14.664C19.7028 14.664 17.6548 13.432 17.6548 11.512C17.6548 9.576 19.7028 8.36 22.7108 8.36ZM22.7108 9.432C20.5028 9.432 18.9988 10.248 18.9988 11.512C18.9988 12.776 20.5028 13.592 22.7108 13.592C24.9188 13.592 26.4068 12.776 26.4068 11.512C26.4068 10.248 24.9188 9.432 22.7108 9.432Z" fill="#00BBFF"/>
</g>
<defs>
<filter id="filter0_d_348_1208" x="38.5755" y="1.99639" width="24.8495" height="26.0128" filterUnits="userSpaceOnUse" color-interpolation-filters="sRGB">
<feFlood flood-opacity="0" result="BackgroundImageFix"/>
<feColorMatrix in="SourceAlpha" type="matrix" values="0 0 0 0 0 0 0 0 0 0 0 0 0 0 0 0 0 0 127 0" result="hardAlpha"/>
<feOffset dx="1" dy="1"/>
<feGaussianBlur stdDeviation="1.4"/>
<feComposite in2="hardAlpha" operator="out"/>
<feColorMatrix type="matrix" values="0 0 0 0 0 0 0 0 0 0 0 0 0 0 0 0 0 0 0.25 0"/>
<feBlend mode="normal" in2="BackgroundImageFix" result="effect1_dropShadow_348_1208"/>
<feBlend mode="normal" in="SourceGraphic" in2="effect1_dropShadow_348_1208" result="shape"/>
</filter>
<filter id="filter1_d_348_1208" x="-0.000195265" y="6.56011" width="33.1029" height="19.4879" filterUnits="userSpaceOnUse" color-interpolation-filters="sRGB">
<feFlood flood-opacity="0" result="BackgroundImageFix"/>
<feColorMatrix in="SourceAlpha" type="matrix" values="0 0 0 0 0 0 0 0 0 0 0 0 0 0 0 0 0 0 127 0" result="hardAlpha"/>
<feOffset dx="1" dy="1"/>
<feGaussianBlur stdDeviation="1.4"/>
<feComposite in2="hardAlpha" operator="out"/>
<feColorMatrix type="matrix" values="0 0 0 0 0 0 0 0 0 0 0 0 0 0 0 0 0 0 0.25 0"/>
<feBlend mode="normal" in2="BackgroundImageFix" result="effect1_dropShadow_348_1208"/>
<feBlend mode="normal" in="SourceGraphic" in2="effect1_dropShadow_348_1208" result="shape"/>
</filter>
<clipPath id="clip0_348_1208">
<rect width="28" height="28" fill="white" transform="translate(36)"/>
</clipPath>
</defs>
</svg>
