<svg width="63" height="28" viewBox="0 0 63 28" fill="none" xmlns="http://www.w3.org/2000/svg">
<g clip-path="url(#clip0_344_470)">
<path d="M38.5 1.75C38.0359 1.75 37.5908 1.93437 37.2626 2.26256C36.9344 2.59075 36.75 3.03587 36.75 3.5V24.5C36.75 24.9641 36.9344 25.4092 37.2626 25.7374C37.5908 26.0656 38.0359 26.25 38.5 26.25H59.5C59.9641 26.25 60.4092 26.0656 60.7374 25.7374C61.0656 25.4092 61.25 24.9641 61.25 24.5V3.5C61.25 3.03587 61.0656 2.59075 60.7374 2.26256C60.4092 1.93437 59.9641 1.75 59.5 1.75H51.625C51.1609 1.75 50.7158 1.93437 50.3876 2.26256C50.0594 2.59075 49.875 3.03587 49.875 3.5V16.2628L54.5055 11.6305C54.6698 11.4662 54.8926 11.3739 55.125 11.3739C55.3574 11.3739 55.5802 11.4662 55.7445 11.6305C55.9088 11.7948 56.0011 12.0176 56.0011 12.25C56.0011 12.4824 55.9088 12.7052 55.7445 12.8695L49.6195 18.9945C49.5382 19.076 49.4417 19.1406 49.3354 19.1847C49.2291 19.2289 49.1151 19.2516 49 19.2516C48.8849 19.2516 48.7709 19.2289 48.6646 19.1847C48.5583 19.1406 48.4618 19.076 48.3805 18.9945L42.2555 12.8695C42.1741 12.7881 42.1096 12.6916 42.0656 12.5853C42.0216 12.479 41.9989 12.3651 41.9989 12.25C41.9989 12.1349 42.0216 12.021 42.0656 11.9147C42.1096 11.8084 42.1741 11.7119 42.2555 11.6305C42.3369 11.5491 42.4334 11.4846 42.5397 11.4406C42.646 11.3966 42.7599 11.3739 42.875 11.3739C42.9901 11.3739 43.104 11.3966 43.2103 11.4406C43.3166 11.4846 43.4131 11.5491 43.4945 11.6305L48.125 16.2628V3.5C48.125 2.57174 48.4937 1.6815 49.1501 1.02513C49.8065 0.368749 50.6967 0 51.625 0L59.5 0C60.4283 0 61.3185 0.368749 61.9749 1.02513C62.6313 1.6815 63 2.57174 63 3.5V24.5C63 25.4283 62.6313 26.3185 61.9749 26.9749C61.3185 27.6313 60.4283 28 59.5 28H38.5C37.5717 28 36.6815 27.6313 36.0251 26.9749C35.3687 26.3185 35 25.4283 35 24.5V3.5C35 2.57174 35.3687 1.6815 36.0251 1.02513C36.6815 0.368749 37.5717 0 38.5 0L42.875 0C43.1071 0 43.3296 0.0921872 43.4937 0.256282C43.6578 0.420376 43.75 0.642936 43.75 0.875C43.75 1.10706 43.6578 1.32962 43.4937 1.49372C43.3296 1.65781 43.1071 1.75 42.875 1.75H38.5Z" fill="#999999"/>
</g>
<path d="M11.376 7.768H12.688V22.264H11.376V7.768ZM8.256 13.048H11.76V14.136H8.256V13.048ZM4.464 9.848H5.536V12.008C5.536 15.128 3.744 18.216 1.456 19.4L0.672 18.344C2.752 17.32 4.464 14.584 4.464 12.008V9.848ZM4.736 9.848H5.792V12.008C5.792 14.424 7.472 17.064 9.568 18.056L8.784 19.096C6.496 17.96 4.736 14.984 4.736 12.008V9.848ZM1.2 9.256H9.072V10.36H1.2V9.256ZM18.7508 9.336H19.8388V10.504C19.8388 13.16 18.2388 15.384 15.8068 16.264L15.1348 15.208C17.3108 14.44 18.7508 12.568 18.7508 10.504V9.336ZM18.9908 9.336H20.0788V10.488C20.0788 12.376 21.4548 14.072 23.5828 14.776L22.9428 15.816C20.5268 15.016 18.9908 12.952 18.9908 10.488V9.336ZM15.5348 8.856H23.2628V9.944H15.5348V8.856ZM25.0868 7.784H26.4148V16.504H25.0868V7.784ZM26.0468 11.448H28.5588V12.568H26.0468V11.448ZM21.8068 16.888C24.7508 16.888 26.5588 17.864 26.5588 19.544C26.5588 21.24 24.7508 22.216 21.8068 22.216C18.8628 22.216 17.0548 21.24 17.0548 19.544C17.0548 17.864 18.8628 16.888 21.8068 16.888ZM21.8068 17.96C19.6628 17.96 18.3508 18.536 18.3508 19.544C18.3508 20.568 19.6628 21.176 21.8068 21.176C23.9508 21.176 25.2628 20.568 25.2628 19.544C25.2628 18.536 23.9508 17.96 21.8068 17.96Z" fill="#999999"/>
<defs>
<clipPath id="clip0_344_470">
<rect width="28" height="28" fill="white" transform="translate(35)"/>
</clipPath>
</defs>
</svg>
