<svg width="63" height="28" viewBox="0 0 63 28" fill="none" xmlns="http://www.w3.org/2000/svg">
<path fill-rule="evenodd" clip-rule="evenodd" d="M58.6253 7.00004C58.6246 6.53116 58.5211 6.06813 58.3222 5.64354C58.1232 5.21896 57.8337 4.84314 57.4738 4.54255C57.1139 4.24195 56.6926 4.02388 56.2394 3.9037C55.7861 3.78351 55.3121 3.76412 54.8506 3.8469C54.3891 3.92968 53.9513 4.11261 53.5681 4.38282C53.1849 4.65303 52.8656 5.00395 52.6326 5.41087C52.3997 5.81779 52.2587 6.27083 52.2198 6.73809C52.1808 7.20535 52.2447 7.67548 52.407 8.11537L45.0406 11.935C44.6177 11.4317 44.0503 11.0704 43.4153 10.9001C42.7803 10.7298 42.1083 10.7587 41.4902 10.983C40.8722 11.2072 40.3379 11.6158 39.9598 12.1536C39.5816 12.6915 39.3778 13.3325 39.376 13.9899C39.3741 14.6474 39.5743 15.2895 39.9494 15.8295C40.3245 16.3694 40.8565 16.7811 41.4733 17.0088C42.09 17.2365 42.7619 17.2692 43.3978 17.1025C44.0338 16.9357 44.6032 16.5777 45.029 16.0767L52.2716 20.3689C52.1191 21.128 52.2462 21.9166 52.6296 22.5893C53.0129 23.262 53.6266 23.7734 54.3574 24.0292C55.0882 24.2849 55.8868 24.2678 56.606 23.9809C57.3251 23.694 57.9162 23.1567 58.2703 22.4681C58.6244 21.7795 58.7175 20.9862 58.5325 20.2343C58.3475 19.4825 57.8969 18.8229 57.2637 18.3773C56.6305 17.9317 55.8576 17.73 55.0874 17.8096C54.3172 17.8891 53.6018 18.2445 53.0731 18.8102L45.7581 14.4749C45.8039 14.1631 45.8043 13.8464 45.7593 13.5345L53.4593 9.54104C53.9341 9.90669 54.5017 10.1321 55.098 10.1916C55.6943 10.2512 56.2953 10.1426 56.833 9.87812C57.3707 9.61364 57.8236 9.20385 58.1404 8.69517C58.4572 8.1865 58.6252 7.59928 58.6253 7.00004ZM55.417 5.54171C55.8038 5.54171 56.1747 5.69535 56.4482 5.96884C56.7217 6.24233 56.8753 6.61327 56.8753 7.00004C56.8753 7.38682 56.7217 7.75775 56.4482 8.03124C56.1747 8.30473 55.8038 8.45837 55.417 8.45837C55.0302 8.45837 54.6593 8.30473 54.3858 8.03124C54.1123 7.75775 53.9586 7.38682 53.9586 7.00004C53.9586 6.61327 54.1123 6.24233 54.3858 5.96884C54.6593 5.69535 55.0302 5.54171 55.417 5.54171ZM42.5836 12.5417C42.9704 12.5417 43.3414 12.6954 43.6148 12.9688C43.8883 13.2423 44.042 13.6133 44.042 14C44.042 14.3868 43.8883 14.7577 43.6148 15.0312C43.3414 15.3047 42.9704 15.4584 42.5836 15.4584C42.1969 15.4584 41.8259 15.3047 41.5524 15.0312C41.279 14.7577 41.1253 14.3868 41.1253 14C41.1253 13.6133 41.279 13.2423 41.5524 12.9688C41.8259 12.6954 42.1969 12.5417 42.5836 12.5417ZM55.417 19.5417C55.8038 19.5417 56.1747 19.6954 56.4482 19.9688C56.7217 20.2423 56.8753 20.6133 56.8753 21C56.8753 21.3868 56.7217 21.7578 56.4482 22.0312C56.1747 22.3047 55.8038 22.4584 55.417 22.4584C55.0302 22.4584 54.6593 22.3047 54.3858 22.0312C54.1123 21.7578 53.9586 21.3868 53.9586 21C53.9586 20.6133 54.1123 20.2423 54.3858 19.9688C54.6593 19.6954 55.0302 19.5417 55.417 19.5417Z" fill="#116AB0"/>
<path d="M7.28 16.904C10.352 16.904 12.32 17.912 12.32 19.576C12.32 21.224 10.352 22.216 7.28 22.216C4.192 22.216 2.24 21.224 2.24 19.576C2.24 17.912 4.192 16.904 7.28 16.904ZM7.28 17.944C5.008 17.944 3.552 18.568 3.552 19.576C3.552 20.568 5.008 21.192 7.28 21.192C9.552 21.192 10.992 20.568 10.992 19.576C10.992 18.568 9.552 17.944 7.28 17.944ZM2.352 8.504H11.664V9.592H2.352V8.504ZM0.8 14.52H13.856V15.592H0.8V14.52ZM6.16 11.736H7.472V14.824H6.16V11.736ZM10.896 8.504H12.192V9.736C12.192 10.904 12.192 12.072 11.808 13.576L10.496 13.416C10.896 11.928 10.896 10.872 10.896 9.736V8.504ZM18.5428 16.728H19.9028V22.248H18.5428V16.728ZM23.5188 16.728H24.8788V22.248H23.5188V16.728ZM15.1828 16.008H28.3028V17.112H15.1828V16.008ZM21.7108 8.36C24.7348 8.36 26.7668 9.576 26.7668 11.512C26.7668 13.432 24.7348 14.664 21.7108 14.664C18.7028 14.664 16.6548 13.432 16.6548 11.512C16.6548 9.576 18.7028 8.36 21.7108 8.36ZM21.7108 9.432C19.5028 9.432 17.9988 10.248 17.9988 11.512C17.9988 12.776 19.5028 13.592 21.7108 13.592C23.9188 13.592 25.4068 12.776 25.4068 11.512C25.4068 10.248 23.9188 9.432 21.7108 9.432Z" fill="#116AB0"/>
</svg>
