<svg width="63" height="28" viewBox="0 0 63 28" fill="none" xmlns="http://www.w3.org/2000/svg">
<path fill-rule="evenodd" clip-rule="evenodd" d="M58.6253 6.99992C58.6246 6.53104 58.5211 6.068 58.3222 5.64342C58.1232 5.21884 57.8337 4.84302 57.4738 4.54242C57.1139 4.24183 56.6926 4.02376 56.2394 3.90358C55.7861 3.78339 55.3121 3.764 54.8506 3.84678C54.3891 3.92956 53.9513 4.11249 53.5681 4.3827C53.1849 4.65291 52.8656 5.00382 52.6326 5.41075C52.3997 5.81767 52.2587 6.27071 52.2198 6.73797C52.1808 7.20523 52.2447 7.67535 52.407 8.11525L45.0406 11.9349C44.6177 11.4316 44.0503 11.0703 43.4153 10.9C42.7803 10.7297 42.1083 10.7586 41.4902 10.9828C40.8722 11.207 40.3379 11.6157 39.9598 12.1535C39.5816 12.6913 39.3778 13.3324 39.376 13.9898C39.3741 14.6473 39.5743 15.2894 39.9494 15.8294C40.3245 16.3693 40.8565 16.781 41.4733 17.0087C42.09 17.2363 42.7619 17.269 43.3978 17.1023C44.0338 16.9356 44.6032 16.5776 45.029 16.0766L52.2716 20.3688C52.1191 21.1278 52.2462 21.9165 52.6296 22.5892C53.0129 23.2619 53.6266 23.7733 54.3574 24.0291C55.0882 24.2848 55.8868 24.2677 56.606 23.9807C57.3251 23.6938 57.9162 23.1565 58.2703 22.468C58.6244 21.7794 58.7175 20.986 58.5325 20.2342C58.3475 19.4824 57.8969 18.8228 57.2637 18.3772C56.6305 17.9315 55.8576 17.7299 55.0874 17.8095C54.3172 17.889 53.6018 18.2444 53.0731 18.8101L45.7581 14.4748C45.8039 14.163 45.8043 13.8463 45.7593 13.5344L53.4593 9.54092C53.9341 9.90657 54.5017 10.1319 55.098 10.1915C55.6943 10.2511 56.2953 10.1425 56.833 9.878C57.3708 9.61352 57.8236 9.20372 58.1404 8.69505C58.4572 8.18638 58.6252 7.59916 58.6253 6.99992ZM55.417 5.54159C55.8038 5.54159 56.1747 5.69523 56.4482 5.96872C56.7217 6.24221 56.8753 6.61314 56.8753 6.99992C56.8753 7.38669 56.7217 7.75763 56.4482 8.03112C56.1747 8.30461 55.8038 8.45825 55.417 8.45825C55.0302 8.45825 54.6593 8.30461 54.3858 8.03112C54.1123 7.75763 53.9586 7.38669 53.9586 6.99992C53.9586 6.61314 54.1123 6.24221 54.3858 5.96872C54.6593 5.69523 55.0302 5.54159 55.417 5.54159ZM42.5836 12.5416C42.9704 12.5416 43.3414 12.6952 43.6148 12.9687C43.8883 13.2422 44.042 13.6131 44.042 13.9999C44.042 14.3867 43.8883 14.7576 43.6148 15.0311C43.3414 15.3046 42.9704 15.4583 42.5836 15.4583C42.1969 15.4583 41.8259 15.3046 41.5524 15.0311C41.279 14.7576 41.1253 14.3867 41.1253 13.9999C41.1253 13.6131 41.279 13.2422 41.5524 12.9687C41.8259 12.6952 42.1969 12.5416 42.5836 12.5416ZM55.417 19.5416C55.8038 19.5416 56.1747 19.6952 56.4482 19.9687C56.7217 20.2422 56.8753 20.6131 56.8753 20.9999C56.8753 21.3867 56.7217 21.7576 56.4482 22.0311C56.1747 22.3046 55.8038 22.4583 55.417 22.4583C55.0302 22.4583 54.6593 22.3046 54.3858 22.0311C54.1123 21.7576 53.9586 21.3867 53.9586 20.9999C53.9586 20.6131 54.1123 20.2422 54.3858 19.9687C54.6593 19.6952 55.0302 19.5416 55.417 19.5416Z" fill="#999999"/>
<path d="M7.28 16.904C10.352 16.904 12.32 17.912 12.32 19.576C12.32 21.224 10.352 22.216 7.28 22.216C4.192 22.216 2.24 21.224 2.24 19.576C2.24 17.912 4.192 16.904 7.28 16.904ZM7.28 17.944C5.008 17.944 3.552 18.568 3.552 19.576C3.552 20.568 5.008 21.192 7.28 21.192C9.552 21.192 10.992 20.568 10.992 19.576C10.992 18.568 9.552 17.944 7.28 17.944ZM2.352 8.504H11.664V9.592H2.352V8.504ZM0.8 14.52H13.856V15.592H0.8V14.52ZM6.16 11.736H7.472V14.824H6.16V11.736ZM10.896 8.504H12.192V9.736C12.192 10.904 12.192 12.072 11.808 13.576L10.496 13.416C10.896 11.928 10.896 10.872 10.896 9.736V8.504ZM18.5428 16.728H19.9028V22.248H18.5428V16.728ZM23.5188 16.728H24.8788V22.248H23.5188V16.728ZM15.1828 16.008H28.3028V17.112H15.1828V16.008ZM21.7108 8.36C24.7348 8.36 26.7668 9.576 26.7668 11.512C26.7668 13.432 24.7348 14.664 21.7108 14.664C18.7028 14.664 16.6548 13.432 16.6548 11.512C16.6548 9.576 18.7028 8.36 21.7108 8.36ZM21.7108 9.432C19.5028 9.432 17.9988 10.248 17.9988 11.512C17.9988 12.776 19.5028 13.592 21.7108 13.592C23.9188 13.592 25.4068 12.776 25.4068 11.512C25.4068 10.248 23.9188 9.432 21.7108 9.432Z" fill="#999999"/>
</svg>
