<svg width="80" height="80" viewBox="0 0 80 80" fill="none" xmlns="http://www.w3.org/2000/svg">
<rect x="1" y="1" width="78" height="78" stroke="#B8DEFB" stroke-width="2"/>
<path d="M28.0844 64V53.792H24.6284V52.224H33.4124V53.792H29.9564V64H28.0844ZM39.4461 64.224C36.4061 64.224 34.3101 61.872 34.3101 58.064C34.3101 54.272 36.4061 52.016 39.4461 52.016C42.4701 52.016 44.5661 54.272 44.5661 58.064C44.5661 61.872 42.4701 64.224 39.4461 64.224ZM39.4461 62.592C41.3981 62.592 42.6621 60.816 42.6621 58.064C42.6621 55.312 41.3981 53.632 39.4461 53.632C37.4781 53.632 36.2301 55.312 36.2301 58.064C36.2301 60.816 37.4781 62.592 39.4461 62.592ZM47.0126 64V52.224H50.5966C53.2206 52.224 55.0926 53.12 55.0926 55.792C55.0926 58.368 53.2206 59.536 50.6606 59.536H48.8846V64H47.0126ZM48.8846 58.048H50.4846C52.3566 58.048 53.2526 57.328 53.2526 55.792C53.2526 54.224 52.2926 53.728 50.4046 53.728H48.8846V58.048Z" fill="#B8DEFB"/>
<path d="M50.5 30.25L40 19.75L29.5 30.25" stroke="#B8DEFB" stroke-width="4" stroke-linecap="round" stroke-linejoin="round"/>
</svg>
